# xmcd CD database file
#
# Track frame offsets:
#	150
#	6708
#	27282
#	52005
#	74213
#	78971
#	99326
#	123134
#	149989
#	155898
#	172447
#	194110
#	200828
#	217248
#
# Disc length: 3010 seconds
#
# Revision: 0
# Processed by: cddbd v1.5.2PL0 Copyright (c) Steve Scherf et al.
# Submitted via: CDex 1.51
#
DISCID=f20bc00e
DTITLE=Chris Gall - Climbing Up
DYEAR=2008
DGENRE=Jazz
TTITLE0=pre.lude
TTITLE1=21st Century Jesus
TTITLE2=Kap Hoorn
TTITLE3=Ten Lifes
TTITLE4=i.lude I
TTITLE5=October Boulevard
TTITLE6=Love Fails
TTITLE7=Life Is Like Weather
TTITLE8=i.lude II
TTITLE9=Everybody Knows But Me
TTITLE10=Lullaby
TTITLE11=i.lude III
TTITLE12=Climbing Up
TTITLE13=post.lude
EXTD=YEAR: 2008
EXTT0=
EXTT1=
EXTT2=
EXTT3=
EXTT4=
EXTT5=
EXTT6=
EXTT7=
EXTT8=
EXTT9=
EXTT10=
EXTT11=
EXTT12=
EXTT13=
PLAYORDER=
